<svg xmlns="http://www.w3.org/2000/svg" viewBox="0 0 51.88 51.88"><path d="M51.88,25.94A25.94,25.94,0,1,1,25.94,0,25.94,25.94,0,0,1,51.88,25.94Z" style="fill-rule:evenodd"/><path d="M18.54,32.9a6.44,6.44,0,0,0,1.35-.13A3.1,3.1,0,0,0,21,32.3a2.15,2.15,0,0,0,.77-.86A2.92,2.92,0,0,0,22.08,30a2.86,2.86,0,0,0-.94-2.4,4.09,4.09,0,0,0-2.5-.71h-5.2v6Zm-.26-9.25A3.47,3.47,0,0,0,20.39,23a2.29,2.29,0,0,0,.81-2,2.55,2.55,0,0,0-.26-1.25,2.08,2.08,0,0,0-.74-.76,3.12,3.12,0,0,0-1.05-.38,7.16,7.16,0,0,0-1.24-.1H13.44v5.08Zm.62-8.79a13.15,13.15,0,0,1,2.84.28,6.18,6.18,0,0,1,2.19.89,4.25,4.25,0,0,1,1.42,1.66,5.9,5.9,0,0,1,.5,2.56A4.75,4.75,0,0,1,25.1,23a5.43,5.43,0,0,1-2.21,1.79,5.2,5.2,0,0,1,3,2,6.06,6.06,0,0,1,1,3.5,6.05,6.05,0,0,1-.64,2.85,5.43,5.43,0,0,1-1.72,2A7.25,7.25,0,0,1,22,36.24a10.8,10.8,0,0,1-2.84.37H8.65V14.86Z" style="fill:#fff"/><path d="M38.65,24.56a3.22,3.22,0,0,0-2.45-.88,3.68,3.68,0,0,0-1.72.36,3.5,3.5,0,0,0-1.09.86A3.12,3.12,0,0,0,32.81,26a5,5,0,0,0-.2,1h7a4.23,4.23,0,0,0-1-2.49Zm-5,8.27a3.83,3.83,0,0,0,2.8,1,3.88,3.88,0,0,0,2.26-.66,2.71,2.71,0,0,0,1.15-1.39H43.7a7.2,7.2,0,0,1-2.81,4.06A8.15,8.15,0,0,1,36.33,37a8.92,8.92,0,0,1-3.35-.6,7.16,7.16,0,0,1-2.55-1.69,7.93,7.93,0,0,1-1.6-2.63,9.73,9.73,0,0,1-.56-3.35,9.16,9.16,0,0,1,.58-3.3,7.61,7.61,0,0,1,4.2-4.39,8.13,8.13,0,0,1,3.28-.64,7.35,7.35,0,0,1,3.5.78,6.91,6.91,0,0,1,2.46,2.08,8.45,8.45,0,0,1,1.38,3,11,11,0,0,1,.3,3.51H32.61a4.4,4.4,0,0,0,1.07,3Z" style="fill:#fff"/><polygon points="31.73 16.32 31.73 18.47 40.54 18.47 40.54 16.32 31.73 16.32 31.73 16.32" style="fill:#fff"/></svg>