<svg xmlns="http://www.w3.org/2000/svg" viewBox="0 0 51.88 51.88"><path d="M51.88,25.94A25.94,25.94,0,1,1,25.94,0,25.94,25.94,0,0,1,51.88,25.94Z" style="fill:#010201;fill-rule:evenodd"/><path d="M35.09,39.55A70.47,70.47,0,0,0,31.9,27.86a23.77,23.77,0,0,1,10.21.71,16.27,16.27,0,0,1-7,11Zm-9.15,2.81A16.32,16.32,0,0,1,15.87,38.9c.3-.6,3.63-7,12.88-10.25l.11,0a68,68,0,0,1,3.5,12.44,16.23,16.23,0,0,1-6.42,1.31ZM9.52,26v-.5a60.3,60.3,0,0,0,16.86-2.33c.48.91.91,1.85,1.33,2.79-.21.06-.44.12-.64.19-8.47,2.73-13,10.19-13.34,10.81A16.33,16.33,0,0,1,9.52,26ZM19,11.1A105.91,105.91,0,0,1,25,20.58a61.11,61.11,0,0,1-15.17,2A16.48,16.48,0,0,1,19,11.1Zm7-1.54a16.35,16.35,0,0,1,10.88,4.13c-.29.41-2.77,3.73-8.61,5.91A88.42,88.42,0,0,0,22.08,10a16.85,16.85,0,0,1,3.86-.44Zm12.69,6a16.34,16.34,0,0,1,3.71,10.21,38.83,38.83,0,0,0-11.42-.52c-.12-.27-.23-.56-.35-.85-.34-.79-.71-1.61-1.09-2.38a22,22,0,0,0,9.15-6.46ZM25.94,6.73A19.21,19.21,0,1,0,45.15,25.94,19.22,19.22,0,0,0,25.94,6.73Z" style="fill:#fff;fill-rule:evenodd"/></svg>