<svg xmlns="http://www.w3.org/2000/svg" viewBox="0 0 51.88 51.88"><path d="M31.38,25.94a5.44,5.44,0,1,1-5.44-5.45A5.44,5.44,0,0,1,31.38,25.94Z" style="fill:#010201"/><path d="M39.23,19.34a8.79,8.79,0,0,0-.56-3,4.93,4.93,0,0,0-1.22-1.88,5,5,0,0,0-1.88-1.22,9,9,0,0,0-3-.57c-1.72-.07-2.24-.09-6.6-.09s-4.88,0-6.6.09a9,9,0,0,0-3,.57,5,5,0,0,0-1.88,1.22,4.93,4.93,0,0,0-1.22,1.88,8.79,8.79,0,0,0-.56,3c-.08,1.72-.1,2.24-.1,6.6s0,4.88.1,6.6a8.84,8.84,0,0,0,.56,3,5,5,0,0,0,1.22,1.88,5.14,5.14,0,0,0,1.88,1.22,9,9,0,0,0,3,.56c1.72.08,2.24.1,6.6.1s4.88,0,6.6-.1a9,9,0,0,0,3-.56,5.14,5.14,0,0,0,1.88-1.22,5,5,0,0,0,1.22-1.88,8.84,8.84,0,0,0,.56-3c.08-1.72.1-2.24.1-6.6S39.31,21.06,39.23,19.34Zm-13.29,15a8.39,8.39,0,1,1,8.39-8.38A8.39,8.39,0,0,1,25.94,34.32Zm8.72-15.14a2,2,0,1,1,2-2A2,2,0,0,1,34.66,19.18Z" style="fill:#010201"/><path d="M25.94,0A25.94,25.94,0,1,0,51.88,25.94,25.94,25.94,0,0,0,25.94,0ZM42.17,32.67a11.88,11.88,0,0,1-.76,4,8.32,8.32,0,0,1-4.77,4.77,11.88,11.88,0,0,1-4,.76c-1.74.08-2.29.1-6.73.1s-5,0-6.73-.1a11.88,11.88,0,0,1-4-.76,8.32,8.32,0,0,1-4.77-4.77,11.88,11.88,0,0,1-.76-4c-.08-1.74-.1-2.3-.1-6.73s0-5,.1-6.74a11.87,11.87,0,0,1,.76-4,7.91,7.91,0,0,1,1.88-2.89,8.07,8.07,0,0,1,2.89-1.89,12.13,12.13,0,0,1,4-.76c1.74-.08,2.29-.09,6.73-.09s5,0,6.73.09a12.13,12.13,0,0,1,4,.76,8.07,8.07,0,0,1,2.89,1.89,7.91,7.91,0,0,1,1.88,2.89,11.87,11.87,0,0,1,.76,4c.08,1.75.1,2.3.1,6.74S42.25,30.93,42.17,32.67Z" style="fill:#010201"/></svg>