<svg xmlns="http://www.w3.org/2000/svg" viewBox="0 0 51.88 51.88"><path d="M51.88,25.94A25.94,25.94,0,1,1,25.94,0,25.94,25.94,0,0,1,51.88,25.94Z" style="fill:#010201"/><path d="M28,22.4c.42-.48.77-1,1.21-1.38A6.74,6.74,0,0,1,34,19.13a10.89,10.89,0,0,1,3,.37,5.88,5.88,0,0,1,4.18,4.4,18.22,18.22,0,0,1,.56,5c0,3.58,0,7.17,0,10.75,0,.34-.09.42-.43.42H35.75c-.33,0-.4-.1-.4-.4,0-3.41,0-6.82,0-10.23a9.05,9.05,0,0,0-.29-2.54,2.86,2.86,0,0,0-3.14-2.23c-2.19.12-3.33,1.2-3.61,3.43a12.17,12.17,0,0,0-.1,1.6c0,3.31,0,6.63,0,10,0,.33-.08.42-.42.42-1.86,0-3.72,0-5.58,0-.29,0-.38-.08-.38-.38q0-9.84,0-19.69c0-.33.11-.4.41-.4h5.3c.33,0,.41.1.4.41,0,.78,0,1.57,0,2.35Z" style="fill:#fefefe"/><path d="M17.83,29.9q0,4.88,0,9.75c0,.36-.09.47-.46.46-1.85,0-3.69,0-5.54,0-.29,0-.38-.07-.38-.38q0-9.85,0-19.73c0-.27.06-.36.35-.36h5.62c.36,0,.41.13.41.44,0,3.27,0,6.55,0,9.82Z" style="fill:#fefefe"/><path d="M18.34,13.12a3.69,3.69,0,1,1-3.68-3.67,3.7,3.7,0,0,1,3.68,3.67Z" style="fill:#fefefe"/></svg>