<svg xmlns="http://www.w3.org/2000/svg" viewBox="0 0 51.88 51.88"><path d="M51.88,25.94A25.94,25.94,0,1,1,25.94,0,25.94,25.94,0,0,1,51.88,25.94Z" style="fill:#010201"/><path d="M40.47,17.37c0-.15,0-.16-.16-.16a6.17,6.17,0,0,1-1.13-.1c-1.35-.2-5.76-2.51-6.5-6.29a10.62,10.62,0,0,1-.18-1.41c0-.18,0-.18-.18-.18H27c-.35,0-.3,0-.3.31V32a4.63,4.63,0,0,1-.05.83,4.75,4.75,0,0,1-2.26,3.35,4.7,4.7,0,0,1-3.51.61,7.23,7.23,0,0,1-1.14-.37l-.09-.09c-.12-.1-.26-.19-.39-.28a4.77,4.77,0,0,1,1.07-8.5,4.36,4.36,0,0,1,1.72-.25,4.67,4.67,0,0,1,1.12.17c.13,0,.2,0,.2-.14a.76.76,0,0,0,0-.15c0-1.34-.05-4.27-.06-4.27,0-.39,0-.78,0-1.16,0-.11-.05-.13-.15-.14a10.6,10.6,0,0,0-8.72,3,10.6,10.6,0,0,0-2.23,3.2,10.36,10.36,0,0,0-.9,3.63,10,10,0,0,0,0,1.64,10.44,10.44,0,0,0,4,7.37,2.34,2.34,0,0,0,.55.38h0l.26.23a5.33,5.33,0,0,0,.88.54A10.7,10.7,0,0,0,30,38.91,10.39,10.39,0,0,0,32.56,32c0-3.73,0-7.45,0-11.17,0-.09,0-.21,0-.26s.15.07.22.12a13.75,13.75,0,0,0,4.5,1.94A13.08,13.08,0,0,0,40.2,23c.3,0,.34,0,.34-.32,0-1.32-.07-4.93-.07-5.28Z" style="fill:#fff"/></svg>