<svg xmlns="http://www.w3.org/2000/svg" viewBox="0 0 51.88 51.88"><path d="M51.88,25.94A25.94,25.94,0,1,1,25.94,0,25.94,25.94,0,0,1,51.88,25.94Z" style="fill:#010201;fill-rule:evenodd"/><path d="M20.7,40.88c12.67,0,19.6-10.5,19.6-19.6,0-.3,0-.59,0-.89a13.87,13.87,0,0,0,3.43-3.57,13.76,13.76,0,0,1-4,1.09,6.93,6.93,0,0,0,3-3.81,13.91,13.91,0,0,1-4.38,1.67A6.88,6.88,0,0,0,26.5,20.48a6.75,6.75,0,0,0,.17,1.57,19.56,19.56,0,0,1-14.19-7.19,6.87,6.87,0,0,0,2.13,9.19,6.74,6.74,0,0,1-3.12-.86v.09A6.89,6.89,0,0,0,17,30a6.76,6.76,0,0,1-1.81.24,6.91,6.91,0,0,1-1.3-.12,6.9,6.9,0,0,0,6.44,4.78,13.82,13.82,0,0,1-8.56,3,12.78,12.78,0,0,1-1.64-.1,19.46,19.46,0,0,0,10.56,3.1" style="fill:#fff"/></svg>