<svg xmlns="http://www.w3.org/2000/svg" viewBox="0 0 51.88 51.88"><polygon points="31.47 25.94 22.48 31.13 22.48 20.75 31.47 25.94" style="fill:#051500"/><path d="M25.94,0A25.94,25.94,0,1,0,51.88,25.94,25.94,25.94,0,0,0,25.94,0ZM42.51,34.26a4.34,4.34,0,0,1-3.06,3.06C36.76,38,25.94,38,25.94,38s-10.82,0-13.51-.72a4.34,4.34,0,0,1-3.06-3.06,45.09,45.09,0,0,1-.72-8.32,45.24,45.24,0,0,1,.72-8.33,4.33,4.33,0,0,1,3.06-3c2.69-.73,13.51-.73,13.51-.73s10.82,0,13.51.73a4.33,4.33,0,0,1,3.06,3,45.24,45.24,0,0,1,.72,8.33A45.09,45.09,0,0,1,42.51,34.26Z" style="fill:#051500"/></svg>